<svg width="43" height="90" viewBox="0 0 43 90" fill="none" xmlns="http://www.w3.org/2000/svg">
<g clip-path="url(#clip0_427_513)">
<path fill-rule="evenodd" clip-rule="evenodd" d="M41.3403 43.8598C41.6593 44.2217 41.8355 44.6875 41.8355 45.1699C41.8355 45.6523 41.6593 46.1181 41.3403 46.48L5.00002 88.1499C4.73287 88.4575 4.37824 88.6761 3.98342 88.7766C3.58859 88.8771 3.17273 88.8546 2.79103 88.7121C2.40934 88.5697 2.08012 88.3141 1.84767 87.9795C1.61523 87.6449 1.49055 87.2472 1.49025 86.8398L1.49025 3.50999C1.4885 3.10172 1.6116 2.70261 1.84328 2.36643C2.07495 2.03026 2.40401 1.77308 2.78615 1.62937C3.16829 1.48566 3.58519 1.46227 3.98097 1.56248C4.37675 1.66269 4.73231 1.88167 5.00001 2.18992L41.3403 43.8598Z" fill="#fcb069" stroke="#e88121" stroke-width="2"/>
</g>
<defs>
<clipPath id="clip0_427_513">
<rect width="89.32" height="42.34" fill="white" transform="translate(0.490234 89.83) rotate(-90)"/>
</clipPath>
</defs>
</svg>
