<svg width="203" height="203" viewBox="0 0 203 203" fill="none" xmlns="http://www.w3.org/2000/svg">
<g clip-path="url(#clip0_81_2)">
<path d="M101.3 202.6C45.4 202.6 0 157.1 0 101.3C0 45.4 45.4 0 101.3 0C157.2 0 202.6 45.4 202.6 101.3C202.6 157.1 157.1 202.6 101.3 202.6ZM101.3 10.6C51.3 10.6 10.6 51.3 10.6 101.3C10.6 151.3 51.3 192 101.3 192C151.3 192 192 151.3 192 101.3C192 51.3 151.3 10.6 101.3 10.6Z" fill="white"/>
<path d="M174.7 101.3C174.7 141.8 141.8 174.7 101.3 174.7C60.8004 174.7 27.9004 141.8 27.9004 101.3C27.9004 60.7999 60.8004 27.8999 101.3 27.8999C141.8 27.8999 174.7 60.6999 174.7 101.3Z" fill="white"/>
</g>
<defs>
<clipPath id="clip0_81_2">
<rect width="202.6" height="202.6" fill="white"/>
</clipPath>
</defs>
</svg>
