<svg width="170" height="118" viewBox="0 0 170 118" fill="none" xmlns="http://www.w3.org/2000/svg">
<path d="M151.2 18.7H125.6L119.6 3.5C118.8 1.4 116.8 0 114.5 0H54.5C52.2 0 50.2 1.4 49.4 3.5L43.4 18.7H17.9C8 18.7 0 26.7 0 36.6V99.5C0 109.4 8 117.4 17.9 117.4H151.2C161.1 117.4 169.1 109.4 169.1 99.5V36.6C169.1 26.7 161.1 18.7 151.2 18.7Z" fill="#CAEFE8"/>
<path d="M84.5999 104.1C104.316 104.1 120.3 88.1168 120.3 68.4002C120.3 48.6836 104.316 32.7002 84.5999 32.7002C64.8833 32.7002 48.8999 48.6836 48.8999 68.4002C48.8999 88.1168 64.8833 104.1 84.5999 104.1Z" fill="#71E1D7"/>
<path d="M84.6 93.9998C98.7385 93.9998 110.2 82.5383 110.2 68.3998C110.2 54.2613 98.7385 42.7998 84.6 42.7998C70.4615 42.7998 59 54.2613 59 68.3998C59 82.5383 70.4615 93.9998 84.6 93.9998Z" fill="white"/>
<path d="M146.4 36.6999C148.83 36.6999 150.8 34.73 150.8 32.2999C150.8 29.8698 148.83 27.8999 146.4 27.8999C143.97 27.8999 142 29.8698 142 32.2999C142 34.73 143.97 36.6999 146.4 36.6999Z" fill="white"/>
<path d="M12.7002 102.4V38.1002C12.7002 37.4002 13.3002 36.7002 14.1002 36.7002C14.8002 36.7002 15.5002 37.3002 15.5002 38.1002V102.4C15.5002 103.1 14.9002 103.8 14.1002 103.8C13.3002 103.8 12.7002 103.2 12.7002 102.4Z" fill="white"/>
<path d="M102.2 15.1002H66.9998C64.8998 15.1002 63.2998 13.4002 63.2998 11.4002C63.2998 9.3002 64.9998 7.7002 66.9998 7.7002H102.2C104.3 7.7002 105.9 9.4002 105.9 11.4002C105.9 13.4002 104.2 15.1002 102.2 15.1002Z" fill="white"/>
</svg>
