<svg width="183" height="183" viewBox="0 0 183 183" fill="none" xmlns="http://www.w3.org/2000/svg">
<g clip-path="url(#clip0_81_32)">
<path d="M182.3 182.3H138.5C136.6 182.3 135.1 180.8 135.1 178.9C135.1 177 136.6 175.5 138.5 175.5H175.5V138.5C175.5 136.6 177 135.1 178.9 135.1C180.8 135.1 182.3 136.6 182.3 138.5V182.3Z" fill="white"/>
<path d="M3.4 47.3C1.5 47.3 0 45.8 0 43.9V0H43.9C45.8 0 47.3 1.5 47.3 3.4C47.3 5.3 45.8 6.8 43.9 6.8H6.9V43.8C6.8 45.8 5.3 47.3 3.4 47.3Z" fill="white"/>
<path d="M178.9 47.3001C177 47.3001 175.5 45.8001 175.5 43.9001V6.9001H138.5C136.6 6.9001 135.1 5.4001 135.1 3.5001C135.1 1.6001 136.6 0.100098 138.5 0.100098H182.3V44.0001C182.3 45.8001 180.8 47.3001 178.9 47.3001Z" fill="white"/>
<path d="M43.9 182.3H0V138.5C0 136.6 1.5 135.1 3.4 135.1C5.3 135.1 6.8 136.6 6.8 138.5V175.5H43.8C45.7 175.5 47.2 177 47.2 178.9C47.3 180.8 45.8 182.3 43.9 182.3Z" fill="white"/>
<path d="M91.1998 112.2C89.2998 112.2 87.7998 110.7 87.7998 108.8V73.6002C87.7998 71.7002 89.2998 70.2002 91.1998 70.2002C93.0998 70.2002 94.5998 71.7002 94.5998 73.6002V108.8C94.5998 110.7 93.0998 112.2 91.1998 112.2Z" fill="white"/>
<path d="M108.8 94.5998H73.4996C71.5996 94.5998 70.0996 93.0998 70.0996 91.1998C70.0996 89.2998 71.5996 87.7998 73.4996 87.7998H108.7C110.6 87.7998 112.1 89.2998 112.1 91.1998C112.1 93.0998 110.7 94.5998 108.8 94.5998Z" fill="white"/>
</g>
<defs>
<clipPath id="clip0_81_32">
<rect width="182.3" height="182.3" fill="white"/>
</clipPath>
</defs>
</svg>
