<svg width="169" height="131" viewBox="0 0 169 131" fill="none" xmlns="http://www.w3.org/2000/svg">
<path d="M153.9 8.8999H17.3003V116.2H153.9V8.8999Z" fill="white"/>
<path fill-rule="evenodd" clip-rule="evenodd" d="M162.1 23.2001C162.1 10.4001 151.8 0.100098 139 0.100098C111.5 0.100098 57.3002 0.100098 29.8002 0.100098C17.0002 0.100098 6.7002 10.4001 6.7002 23.2001V107.2C6.7002 120 17.0002 130.3 29.8002 130.3H139C151.8 130.3 162.1 120 162.1 107.2V23.2001ZM149.5 23.2001V107.2C149.5 113 144.8 117.7 139 117.7C111.5 117.7 57.3002 117.7 29.8002 117.7C24.0002 117.7 19.3002 113 19.3002 107.2V23.2001C19.3002 17.4001 24.0002 12.7001 29.8002 12.7001H139C144.8 12.7001 149.5 17.4001 149.5 23.2001Z" fill="#CAEFE8"/>
<path fill-rule="evenodd" clip-rule="evenodd" d="M162.1 94.6C162.1 93.2 161.6 91.8 160.7 90.6C160.7 90.6 141.4 66.7 131.2 54.1C128.5 50.8 124.5 48.8 120.2 48.7C115.9 48.6 111.8 50.3 108.9 53.5L80.9003 84.5C80.2003 85.3 78.9003 85.4 78.0003 84.7L69.1003 77.6C63.2003 72.9 54.6003 73.4 49.3003 78.9L14.1003 115.4C12.9003 116.6 12.3003 118.3 12.3003 120C12.4003 121.7 13.1003 123.3 14.4003 124.5C18.5003 128.1 23.8003 130.3 29.7003 130.3H139C151.8 130.3 162.1 120 162.1 107.2V94.6Z" fill="#CAEFE8"/>
<path d="M55.0003 50.5001C63.1189 50.5001 69.7003 43.9187 69.7003 35.8001C69.7003 27.6815 63.1189 21.1001 55.0003 21.1001C46.8817 21.1001 40.3003 27.6815 40.3003 35.8001C40.3003 43.9187 46.8817 50.5001 55.0003 50.5001Z" fill="#71E1D7"/>
</svg>
